<?xml version="1.0"?>
<svg xmlns="http://www.w3.org/2000/svg" xmlns:xlink="http://www.w3.org/1999/xlink" xmlns:svgjs="http://svgjs.com/svgjs" version="1.1" width="512" height="512" x="0" y="0" viewBox="0 0 52 58" style="enable-background:new 0 0 512 512" xml:space="preserve" class=""><g><g xmlns="http://www.w3.org/2000/svg" id="Page-1" fill="none" fill-rule="evenodd"><g id="003---Safe" fill-rule="nonzero"><path id="Shape" d="m32 50h15.833v5c0 1.6568542-1.3431458 3-3 3h-9.833c-1.6568542 0-3-1.3431458-3-3z" fill="#393f4a" data-original="#393f4a" style=""/><path id="Shape" d="m4.167 50h15.833v5c0 1.6568542-1.3431458 3-3 3h-9.833c-1.65685425 0-3-1.3431458-3-3z" fill="#393f4a" data-original="#393f4a" style=""/><path id="Shape" d="m.17 13v35c0 2.209139 1.790861 4 4 4h43.83c2.209139 0 4-1.790861 4-4v-44c0-2.209139-1.790861-4-4-4h-43.83c-2.209139 0-4 1.790861-4 4z" fill="#83bfb0" data-original="#2980ba" style="" class=""/><path id="Shape" d="m45 41v2c-.0032948 1.1032019-.8967981 1.9967052-2 2h-34c-1.10320187-.0032948-1.9967052-.8967981-2-2v-34c.0032948-1.10320187.89679813-1.9967052 2-2h34c1.1032019.0032948 1.9967052.89679813 2 2z" fill="#99ddcc" data-original="#3b97d3" style="" class=""/><path id="Shape" d="m36.49 29.27c-.1882905.6382233-.443018 1.2549319-.76 1.84-1.0253681 1.9805722-2.6394278 3.5946319-4.62 4.62-.2920921.1593296-.592524.3028693-.9.43-.31.13-.63.24-.94.34-2.1287511.6719449-4.4133137.6684516-6.54-.01-.6382233-.1882905-1.2549319-.443018-1.84-.76-1.9805722-1.0253681-3.5946319-2.6394278-4.62-4.62-.1593296-.2920921-.3028693-.592524-.43-.9-.13-.31-.24-.62-.34-.94-.6719449-2.1287511-.6684516-4.4133137.01-6.54.1882905-.6382233.443018-1.2549319.76-1.84 1.0253681-1.9805722 2.6394278-3.5946319 4.62-4.62.2920921-.1593296.592524-.3028693.9-.43.31-.13.63-.24.94-.34 2.1287511-.6719449 4.4133137-.6684516 6.54.01.6382233.1882905 1.2549319.443018 1.84.76 1.9805722 1.0253681 3.5946319 2.6394278 4.62 4.62.1593296.2920921.3028693.592524.43.9.13.31.24.62.34.94.6719449 2.1287511.6684516 4.4133137-.01 6.54z" fill="#bdc3c7" data-original="#bdc3c7" style=""/><circle id="Oval" cx="26" cy="26" fill="#56595e" r="5" data-original="#56595e" style=""/><path id="Shape" d="m26.008 32c-3.0112936.003342-5.5585994-2.2258929-5.9545619-5.2110419-.3959625-2.9851489 1.4820916-5.8013818 4.3901244-6.5832038 2.9080329-.7818219 5.9451057.7129836 7.0994375 3.4942457.767996 1.8504196.5617342 3.9620699-.5498198 5.6288988-1.1115539 1.6668288-2.9817168 2.6688777-4.9851802 2.6711012zm-.008-10c-1.7614962.0020218-3.3143346 1.1561259-3.824189 2.8422224-.5098544 1.6860966.1432991 3.5072648 1.6085269 4.4850074s3.3976035.8818909 4.7588789-.2360547c1.3612753-1.1179456 1.8309952-2.9948118 1.1567832-4.6221751-.6176349-1.4979031-2.0797637-2.4735777-3.7-2.469z" fill="#95a5a5" data-original="#95a5a5" style=""/><rect id="Rectangle-path" fill="#bdc3c7" height="10" rx="2" width="6" x="42" y="11" data-original="#bdc3c7" style=""/><rect id="Rectangle-path" fill="#bdc3c7" height="10" rx="2" width="6" x="42" y="31" data-original="#bdc3c7" style=""/><g fill="#95a5a5"><path id="Shape" d="m31.11 35.73c-.2920921.1593296-.592524.3028693-.9.43-.31.13-.63.24-.94.34l-.75-1.8c-.2126296-.5108634.0291366-1.0973704.54-1.31s1.0973704.0291366 1.31.54z" fill="#95a5a5" data-original="#95a5a5" style=""/><path id="Shape" d="m22.94 18.61c-.1207927.0494071-.2495402.0765118-.38.08-.4064442-.0009373-.7728101-.2451812-.93-.62l-.74-1.8c.2920921-.1593296.592524-.3028693.9-.43.31-.13.63-.24.94-.34l.75 1.8c.102641.2452731.1033783.5213244.0020488.7671422-.1013295.2458179-.2963823.4411618-.5420488.5428578z" fill="#95a5a5" data-original="#95a5a5" style=""/><path id="Shape" d="m18.07 30.37-1.8.74c-.1593296-.2920921-.3028693-.592524-.43-.9-.13-.31-.24-.62-.34-.94l1.8-.75c.5108634-.2126296 1.0973704.0291366 1.31.54s-.0291366 1.0973704-.54 1.31z" fill="#95a5a5" data-original="#95a5a5" style=""/><path id="Shape" d="m36.5 22.73-1.8.75c-.1207927.0494071-.2495402.0765118-.38.08-.4845092.0112036-.9073135-.3266266-1.0033054-.8016637-.095992-.4750371.1624619-.9505308.6133054-1.1283363l1.8-.74c.1593296.2920921.3028693.592524.43.9.13.31.24.62.34.94z" fill="#95a5a5" data-original="#95a5a5" style=""/><path id="Shape" d="m36.49 29.27c-.1882905.6382233-.443018 1.2549319-.76 1.84l-1.8-.74c-.5108634-.2126296-.7526296-.7991366-.54-1.31.2126297-.5108634.7991366-.7526296 1.31-.54z" fill="#95a5a5" data-original="#95a5a5" style=""/><path id="Shape" d="m18.61 22.94c-.1571899.3748188-.5235558.6190627-.93.62-.1304598-.0034882-.2592073-.0305929-.38-.08l-1.79-.75c.1882905-.6382233.443018-1.2549319.76-1.84l1.8.74c.2456665.101696.4407193.2970399.5420488.5428578.1013295.2458178.1005922.5218691-.0020488.7671422z" fill="#95a5a5" data-original="#95a5a5" style=""/><path id="Shape" d="m23.48 34.7-.75 1.79c-.6382233-.1882905-1.2549319-.443018-1.84-.76l.74-1.8c.2126296-.5108634.7991366-.7526296 1.31-.54s.7526296.7991366.54 1.31z" fill="#95a5a5" data-original="#95a5a5" style=""/><path id="Shape" d="m31.11 16.27-.74 1.8c-.1571899.3748188-.5235558.6190627-.93.62-.1304598-.0034882-.2592073-.0305929-.38-.08-.2456665-.101696-.4407193-.2970399-.5420488-.5428578-.1013295-.2458178-.1005922-.5218691.0020488-.7671422l.75-1.79c.6382233.1882905 1.2549319.443018 1.84.76z" fill="#95a5a5" data-original="#95a5a5" style=""/></g><path id="Shape" d="m11 17c-.5522847 0-1-.4477153-1-1v-5c0-.5522847.4477153-1 1-1h5c.5522847 0 1 .4477153 1 1s-.4477153 1-1 1h-4v4c0 .5522847-.4477153 1-1 1z" fill="#ffffff" data-original="#ffffff" style=""/></g></g></g></svg>
